<svg width="382" height="388" viewBox="0 0 382 388" fill="none" xmlns="http://www.w3.org/2000/svg">
<path d="M318.844 23C334.706 50.996 327.221 76.8891 321.733 95.8722C321.554 96.4923 321.376 97.1059 321.202 97.7111C326.349 102.001 330.886 107.265 335.591 114.113C345.706 128.838 349.143 141.578 349.143 157.804C349.143 171.836 345.347 184.958 338.816 196.298C358.805 208.37 372.215 230.259 372.215 255.344C372.215 293.437 341.393 324.315 303.371 324.315C291.855 324.315 281.023 321.445 271.485 316.44C260.601 351.909 227.644 377.7 188.668 377.7C148.541 377.7 114.881 350.331 105.027 313.234C100.827 313.899 96.5502 314.342 92.1634 314.342C46.786 314.342 10.0017 277.487 10.0017 232.028L10 232.028C10 198.726 29.7772 170.113 58.1732 157.15C57.4436 152.555 56.9572 147.876 56.9572 143.076C56.9572 121.068 64.9347 100.928 78.1507 85.3979C74.9492 81.8519 73 77.1536 73 72C73 60.9543 81.9543 52 93 52C100.233 52 106.57 55.84 110.082 61.5927C120.996 56.7923 133.058 54.128 145.741 54.128C178.609 54.128 207.236 72.0657 222.585 98.6568C235.976 87.3988 253.227 80.596 272.078 80.596C276.755 80.596 280.914 80.8844 285.16 81.635C311.928 66.639 318.844 23 318.844 23Z" fill="#3959FF"/>
<path d="M340.516 29.243C340.516 34.1602 336.503 38.1467 331.552 38.1467C331.074 38.1467 330.607 38.0988 330.149 38.0269C329.074 42.0395 325.402 45 321.024 45C316.772 45 313.177 42.2103 311.989 38.3736C310.949 38.915 309.767 39.2255 308.511 39.2255C304.363 39.2255 301 35.8854 301 31.765C301 29.0516 302.463 26.6839 304.644 25.3782C303.931 24.1515 303.517 22.7322 303.517 21.2144C303.517 19.4593 303.892 18.0812 304.996 16.4885C306.138 14.8393 307.19 14.0396 309.088 13.3606C310.146 12.9821 310.927 12.863 311.924 12.863C313.981 12.863 315.863 13.5988 317.324 14.8166C318.999 11.9403 322.122 10 325.707 10C331.057 10 335.393 14.3076 335.393 19.6212C335.393 20.1404 335.34 20.6466 335.261 21.1436C338.359 22.5458 340.516 25.6408 340.516 29.243L340.516 29.243Z" fill="#3959FF"/>
</svg>
